<?xml version="1.0" encoding="UTF-8" standalone="no"?>
<svg
   xmlns:dc="http://purl.org/dc/elements/1.1/"
   xmlns:cc="http://creativecommons.org/ns#"
   xmlns:rdf="http://www.w3.org/1999/02/22-rdf-syntax-ns#"
   xmlns:svg="http://www.w3.org/2000/svg"
   xmlns="http://www.w3.org/2000/svg"
   xmlns:sodipodi="http://sodipodi.sourceforge.net/DTD/sodipodi-0.dtd"
   xmlns:inkscape="http://www.inkscape.org/namespaces/inkscape"
   version="1.1"
   id="svg2"
   xml:space="preserve"
   width="1000"
   height="100"
   viewBox="0 0 1000 100"
   sodipodi:docname="45drives-motherboard.svg"
   inkscape:version="1.0.2 (e86c870879, 2021-01-15)"
   inkscape:export-filename="/home/mark/dev/cockpit-hardware/src/fakeroot/usr/share/cockpit/45drives-disks/img/45drives-disks.png"
   inkscape:export-xdpi="96.050003"
   inkscape:export-ydpi="96.050003"><metadata
     id="metadata8"><rdf:RDF><cc:Work
         rdf:about=""><dc:format>image/svg+xml</dc:format><dc:type
           rdf:resource="http://purl.org/dc/dcmitype/StillImage" /><dc:title /></cc:Work></rdf:RDF></metadata><defs
     id="defs6"><rect
       x="410.7345"
       y="184.8728"
       width="773.1098"
       height="144.72887"
       id="rect1077" /><clipPath
       clipPathUnits="userSpaceOnUse"
       id="clipPath18"><path
         d="M 0,472 H 1279.866 V 0 H 0 Z"
         id="path16" /></clipPath></defs><sodipodi:namedview
     pagecolor="#808080"
     bordercolor="#666666"
     borderopacity="1"
     objecttolerance="10"
     gridtolerance="10"
     guidetolerance="10"
     inkscape:pageopacity="0"
     inkscape:pageshadow="2"
     inkscape:window-width="1920"
     inkscape:window-height="1006"
     id="namedview4"
     showgrid="false"
     inkscape:zoom="0.71784639"
     inkscape:cx="461.60644"
     inkscape:cy="55.227889"
     inkscape:window-x="0"
     inkscape:window-y="0"
     inkscape:window-maximized="1"
     inkscape:current-layer="g2385"
     inkscape:document-rotation="0" /><g
     id="g10"
     inkscape:groupmode="layer"
     inkscape:label="45drives-logo-tagline"
     transform="matrix(1.3333333,0,0,-1.3333333,0,629.33333)"><g
       id="g1161"
       transform="translate(-8.476632,3.257738)"><g
         id="g2015"
         inkscape:export-xdpi="138.948"
         inkscape:export-ydpi="138.948"><g
           id="g2385"
           transform="translate(-68.536915,5.9594986)"><g
             id="g24"
             transform="matrix(0.27941192,0,0,0.27941192,112.48278,426.71414)"
             style="fill:#ffffff;fill-opacity:1"><path
               d="M 0,0 C 0,8.399 0.759,21.209 1.175,29.609 H 0.342 C -2.987,22.14 -6.734,14.815 -10.482,7.273 L -27.831,-21.583 H 43.792 V -44.904 H -57.153 v 21.166 L -8.896,55.746 H 28.539 V -76.441 H 0 Z"
               style="fill:#ffffff;fill-opacity:1;fill-rule:nonzero;stroke:none"
               id="path26" /></g><g
             id="g28"
             transform="matrix(0.27941192,0,0,0.27941192,127.88645,409.8509)"
             style="fill:#ffffff;fill-opacity:1"><path
               d="m 0,0 13.767,19.33 c 7.91,-7.298 17.289,-13.223 28.55,-13.223 13.514,0 22.202,7.172 22.202,20.734 0,13.218 -8.518,20.439 -20.757,20.439 -7.664,0 -11.654,-1.689 -19.564,-6.757 l -13.644,8.818 3.624,66.758 H 89.143 V 90.375 H 40.586 L 38.409,65.583 c 5.017,2.141 9.253,3.034 14.687,3.034 22.822,0 42.095,-12.906 42.095,-41.018 0,-29.338 -22.702,-46.185 -48.489,-46.185 C 25.126,-18.586 10.383,-10.383 0,0"
               style="fill:#ffffff;fill-opacity:1;fill-rule:nonzero;stroke:none"
               id="path30" /></g><g
             id="g32"
             transform="matrix(0.27941192,0,0,0.27941192,171.83121,409.25142)"
             style="fill:#981c20;fill-opacity:1;stroke-width:1.00121;stroke-miterlimit:4;stroke-dasharray:none"><path
               d="M 0,0 C 31.236,0 46.817,19.574 46.817,53.354 46.817,87.133 31.236,105.745 0,105.745 H -15.161 V 0 Z m -32.165,119.687 h 33.43 c 41.087,0 63.115,-23.879 63.115,-66.333 0,-42.454 -22.028,-67.297 -62.366,-67.297 h -34.179 z"
               style="fill:#981c20;fill-opacity:1;fill-rule:nonzero;stroke:none;stroke-width:1.00121;stroke-miterlimit:4;stroke-dasharray:none"
               id="path34" /></g><g
             id="g36"
             transform="matrix(0.27941192,0,0,0.27941192,197.8479,433.0092)"
             style="fill:#981c20;fill-opacity:1;stroke-width:1.00121;stroke-miterlimit:4;stroke-dasharray:none"><path
               d="m 0,0 h 13.835 l 1.414,-18.023 h 0.558 c 6.889,12.557 17.004,20.467 28.138,20.467 4.382,0 7.458,-0.556 10.565,-2.036 l -3.126,-14.693 c -3.408,1.073 -5.636,1.63 -9.601,1.63 -8.359,0 -18.346,-6.023 -25.036,-22.765 V -98.971 H 0 Z"
               style="fill:#981c20;fill-opacity:1;fill-rule:nonzero;stroke:none;stroke-width:1.00121;stroke-miterlimit:4;stroke-dasharray:none"
               id="path38" /></g><path
             d="m 218.04231,433.00917 h 4.67931 V 405.3555 h -4.67931 z m -0.85668,8.70788 c 0,1.83741 1.41299,3.02267 3.23224,3.02267 1.81953,0 3.23252,-1.18526 3.23252,-3.02267 0,-1.76645 -1.41299,-3.02352 -3.23252,-3.02352 -1.81925,0 -3.23224,1.25707 -3.23224,3.02352"
             style="fill:#981c20;fill-opacity:1;fill-rule:nonzero;stroke:none;stroke-width:0.27975;stroke-miterlimit:4;stroke-dasharray:none"
             id="path40" /><g
             id="g42"
             transform="matrix(0.27941192,0,0,0.27941192,228.50819,433.0092)"
             style="fill:#981c20;fill-opacity:1;stroke-width:1.00121;stroke-miterlimit:4;stroke-dasharray:none"><path
               d="m 0,0 h 17.263 l 18.715,-56.224 c 2.957,-9.666 6.172,-19.738 9.131,-29.188 h 0.815 c 2.957,9.45 6.172,19.522 9.131,29.188 L 73.771,0 h 16.404 l -35,-98.971 H 35.708 Z"
               style="fill:#981c20;fill-opacity:1;fill-rule:nonzero;stroke:none;stroke-width:1.00121;stroke-miterlimit:4;stroke-dasharray:none"
               id="path44" /></g><g
             id="g46"
             transform="matrix(0.27941192,0,0,0.27941192,276.56265,421.40939)"
             style="fill:#981c20;fill-opacity:1;stroke-width:1.00121;stroke-miterlimit:4;stroke-dasharray:none"><path
               d="M 0,0 C 0,19.833 -8.919,30.615 -24.396,30.615 -38.311,30.615 -50.744,19.445 -52.782,0 Z m -69.187,-8.099 c 0,32.212 21.709,52.058 44.491,52.058 25.244,0 39.496,-18.129 39.496,-46.441 0,-3.535 -0.3,-7.069 -0.782,-9.513 h -66.65 c 1.199,-20.966 14.019,-34.561 32.884,-34.561 9.496,0 17.298,3.066 24.628,7.91 l 5.998,-10.989 C 2.199,-55.312 -8.344,-59.9 -21.805,-59.9 c -26.38,0 -47.382,19.29 -47.382,51.801"
               style="fill:#981c20;fill-opacity:1;fill-rule:nonzero;stroke:none;stroke-width:1.00121;stroke-miterlimit:4;stroke-dasharray:none"
               id="path48" /></g><g
             id="g50"
             transform="matrix(0.27941192,0,0,0.27941192,284.88963,408.51143)"
             style="fill:#981c20;fill-opacity:1;stroke-width:1.00121;stroke-miterlimit:4;stroke-dasharray:none"><path
               d="m 0,0 8.27,11.031 c 8.592,-6.924 17.328,-11.725 29.214,-11.725 12.993,0 19.446,6.926 19.446,15.373 0,10.184 -11.683,14.685 -22.634,18.757 -13.869,5.07 -29.517,11.894 -29.517,28.59 0,15.835 12.687,28.094 34.139,28.094 12.319,0 23.1,-5.046 30.772,-11.121 L 61.679,68.268 c -6.815,5.036 -13.813,8.808 -22.57,8.808 -12.467,0 -18.222,-6.647 -18.222,-14.193 0,-9.411 10.759,-12.992 21.968,-17.172 14.276,-5.38 30.179,-11.186 30.179,-30.026 0,-16.05 -12.75,-29.424 -36.107,-29.424 C 22.867,-13.739 9.303,-7.78 0,0"
               style="fill:#981c20;fill-opacity:1;fill-rule:nonzero;stroke:none;stroke-width:1.00121;stroke-miterlimit:4;stroke-dasharray:none"
               id="path52" /></g><g
             aria-label="Motherboard"
             transform="scale(1,-1)"
             id="text1083"
             style="font-size:55.4422px;line-height:1.25;font-family:sans-serif;stroke-width:0.209559"><path
               d="m 362.76321,-408.20711 -14.91395,-31.10307 v 33.87518 h -3.99184 v -38.80954 h 5.93232 l 12.97347,27.61022 12.97348,-27.61022 h 5.93231 v 38.80954 h -4.04728 v -33.7643 z"
               style="font-style:normal;font-variant:normal;font-weight:normal;font-stretch:normal;font-size:55.4422px;font-family:'Red Hat Text';-inkscape-font-specification:'Red Hat Text';fill:#ffffff;fill-opacity:1;stroke-width:0.209559"
               id="path871" /><path
               d="m 389.59713,-418.96289 q 0,-2.99388 0.99796,-5.54422 0.99796,-2.55035 2.71667,-4.43538 1.77415,-1.88504 4.21361,-2.93844 2.43945,-1.0534 5.21156,-1.0534 2.82756,0 5.21157,1.0534 2.43946,1.0534 4.21361,2.93844 1.77415,1.88503 2.77211,4.43538 0.99796,2.55034 0.99796,5.54422 0,2.99387 -1.05341,5.59966 -0.99795,2.60578 -2.77211,4.49082 -1.7187,1.82959 -4.15816,2.93843 -2.43946,1.0534 -5.21157,1.0534 -2.77211,0 -5.21156,-1.0534 -2.38402,-1.10884 -4.15817,-2.99388 -1.71871,-1.88503 -2.77211,-4.43537 -0.99796,-2.60579 -0.99796,-5.59966 z m 13.1398,10.47857 q 3.9364,0 6.54218,-2.93844 2.66123,-2.99387 2.66123,-7.48469 0,-4.49082 -2.66123,-7.4847 -2.60578,-2.99388 -6.54218,-2.99388 -3.93639,0 -6.54218,2.99388 -2.60578,2.99388 -2.60578,7.4847 0,4.49082 2.60578,7.48469 2.60579,2.93844 6.54218,2.93844 z"
               style="font-style:normal;font-variant:normal;font-weight:normal;font-stretch:normal;font-size:55.4422px;font-family:'Red Hat Text';-inkscape-font-specification:'Red Hat Text';fill:#ffffff;fill-opacity:1;stroke-width:0.209559"
               id="path873" /><path
               d="m 424.52568,-411.53364 v -17.63062 h -5.59967 v -3.32653 h 5.59967 v -7.42926 l 4.04728,-0.94251 v 8.37177 h 7.7619 v 3.32653 h -7.7619 v 16.57722 q 0,2.16224 0.88707,3.10476 0.94252,0.94252 3.04932,0.94252 1.0534,0 1.88504,-0.16633 0.83163,-0.16632 1.94047,-0.55442 v 3.60374 q -1.10884,0.3881 -2.32857,0.55443 -1.21973,0.16632 -2.38401,0.16632 -3.49286,0 -5.32245,-1.66326 -1.77415,-1.71871 -1.77415,-4.93436 z"
               style="font-style:normal;font-variant:normal;font-weight:normal;font-stretch:normal;font-size:55.4422px;font-family:'Red Hat Text';-inkscape-font-specification:'Red Hat Text';fill:#ffffff;fill-opacity:1;stroke-width:0.209559"
               id="path875" /><path
               d="m 442.26709,-405.435 v -39.64117 l 4.04728,-0.83163 v 17.79694 q 1.55238,-2.38401 3.71463,-3.60374 2.16224,-1.21973 4.87891,-1.21973 4.32449,0 7.04116,2.77211 2.77211,2.77211 2.77211,7.20749 v 17.51973 h -4.04728 v -16.35545 q 0,-3.5483 -1.99592,-5.6551 -1.94048,-2.1068 -5.26701,-2.1068 -2.21769,0 -4.04728,1.0534 -1.82959,1.0534 -3.04932,3.10476 v 19.95919 z"
               style="font-style:normal;font-variant:normal;font-weight:normal;font-stretch:normal;font-size:55.4422px;font-family:'Red Hat Text';-inkscape-font-specification:'Red Hat Text';fill:#ffffff;fill-opacity:1;stroke-width:0.209559"
               id="path877" /><path
               d="m 495.21429,-408.53976 q -2.32857,1.82959 -4.82347,2.71667 -2.4949,0.88707 -5.32245,0.88707 -2.82755,0 -5.32245,-1.0534 -2.43946,-1.10884 -4.26905,-2.99388 -1.77415,-1.88503 -2.82755,-4.43537 -0.99796,-2.60579 -0.99796,-5.54422 0,-2.93844 0.94252,-5.48878 0.99795,-2.60579 2.71666,-4.43538 1.71871,-1.88503 4.04728,-2.93843 2.32858,-1.10885 5.04524,-1.10885 2.66123,0 4.93436,1.0534 2.27313,1.0534 3.9364,2.883 1.66326,1.77415 2.60578,4.32449 0.94252,2.4949 0.94252,5.37789 v 1.21973 h -21.23437 q 0.27721,4.10272 3.04932,6.87483 2.77211,2.71667 6.59763,2.71667 2.1068,0 4.04728,-0.72075 1.99592,-0.77619 3.38197,-2.05136 z m -10.86667,-20.90171 q -3.32653,0 -5.71055,2.38401 -2.38401,2.38402 -2.93843,6.09865 h 17.13164 q -0.44354,-3.65919 -2.82755,-6.0432 -2.32858,-2.43946 -5.65511,-2.43946 z"
               style="font-style:normal;font-variant:normal;font-weight:normal;font-stretch:normal;font-size:55.4422px;font-family:'Red Hat Text';-inkscape-font-specification:'Red Hat Text';fill:#ffffff;fill-opacity:1;stroke-width:0.209559"
               id="path879" /><path
               d="m 503.75234,-405.435 v -27.05579 h 4.04728 v 5.48878 q 1.0534,-2.82756 2.99388,-4.37994 1.99592,-1.60782 4.54626,-1.60782 0.72075,0 1.33061,0.11088 0.60987,0.0555 1.21973,0.27721 v 3.65919 q -0.6653,-0.22177 -1.44149,-0.33265 -0.72075,-0.16633 -1.38606,-0.16633 -2.4949,0 -4.37993,1.4415 -1.8296,1.44149 -2.883,4.04728 v 18.51769 z"
               style="font-style:normal;font-variant:normal;font-weight:normal;font-stretch:normal;font-size:55.4422px;font-family:'Red Hat Text';-inkscape-font-specification:'Red Hat Text';fill:#ffffff;fill-opacity:1;stroke-width:0.209559"
               id="path881" /><path
               d="m 548.49415,-418.96289 q 0,2.93843 -0.99796,5.48877 -0.94251,2.55034 -2.66122,4.43538 -1.71871,1.82959 -4.04728,2.93844 -2.32858,1.0534 -4.9898,1.0534 -2.55034,0 -4.76803,-0.99796 -2.16225,-1.0534 -3.77007,-2.93844 v 3.5483 h -3.99184 v -39.64117 l 4.04728,-0.83163 v 17.13164 q 1.55238,-1.88504 3.77007,-2.93844 2.21769,-1.10884 4.93436,-1.10884 2.60578,0 4.87891,1.10884 2.32857,1.0534 3.99184,2.93844 1.66327,1.82959 2.60578,4.37993 0.99796,2.55034 0.99796,5.43334 z m -13.47245,-10.31225 q -2.38402,0 -4.43538,0.99796 -1.99592,0.94251 -3.27109,2.71666 v 13.25069 q 1.33062,1.77415 3.32653,2.77211 2.05137,0.99796 4.37994,0.99796 4.04728,0 6.76395,-2.93844 2.71666,-2.99388 2.71666,-7.42925 0,-4.43538 -2.71666,-7.37381 -2.71667,-2.99388 -6.76395,-2.99388 z"
               style="font-style:normal;font-variant:normal;font-weight:normal;font-stretch:normal;font-size:55.4422px;font-family:'Red Hat Text';-inkscape-font-specification:'Red Hat Text';fill:#ffffff;fill-opacity:1;stroke-width:0.209559"
               id="path883" /><path
               d="m 554.42635,-418.96289 q 0,-2.99388 0.99796,-5.54422 0.99796,-2.55035 2.71667,-4.43538 1.77415,-1.88504 4.21361,-2.93844 2.43945,-1.0534 5.21156,-1.0534 2.82756,0 5.21157,1.0534 2.43946,1.0534 4.21361,2.93844 1.77415,1.88503 2.77211,4.43538 0.99796,2.55034 0.99796,5.54422 0,2.99387 -1.05341,5.59966 -0.99795,2.60578 -2.77211,4.49082 -1.7187,1.82959 -4.15816,2.93843 -2.43946,1.0534 -5.21157,1.0534 -2.77211,0 -5.21156,-1.0534 -2.38402,-1.10884 -4.15817,-2.99388 -1.71871,-1.88503 -2.77211,-4.43537 -0.99796,-2.60579 -0.99796,-5.59966 z m 13.1398,10.47857 q 3.9364,0 6.54218,-2.93844 2.66123,-2.99387 2.66123,-7.48469 0,-4.49082 -2.66123,-7.4847 -2.60578,-2.99388 -6.54218,-2.99388 -3.93639,0 -6.54218,2.99388 -2.60578,2.99388 -2.60578,7.4847 0,4.49082 2.60578,7.48469 2.60579,2.93844 6.54218,2.93844 z"
               style="font-style:normal;font-variant:normal;font-weight:normal;font-stretch:normal;font-size:55.4422px;font-family:'Red Hat Text';-inkscape-font-specification:'Red Hat Text';fill:#ffffff;fill-opacity:1;stroke-width:0.209559"
               id="path885" /><path
               d="m 596.5069,-404.93602 q -4.3245,0 -7.09661,-2.27313 -2.71666,-2.32857 -2.71666,-5.98776 0,-3.60374 2.77211,-5.82143 2.82755,-2.21768 7.37381,-2.21768 2.32857,0 4.37993,0.55442 2.10681,0.49898 3.88096,1.55238 v -3.71463 q 0,-3.32653 -1.77415,-4.9898 -1.77415,-1.7187 -5.21157,-1.7187 -1.88503,0 -3.88095,0.55442 -1.94048,0.55442 -4.3245,1.77415 l -1.49693,-3.10477 q 2.77211,-1.33061 5.267,-1.94047 2.4949,-0.66531 4.93436,-0.66531 4.9898,0 7.70647,2.4949 2.77211,2.43946 2.77211,7.04116 v 17.96327 h -3.99184 v -3.1602 q -1.77415,1.82959 -3.9364,2.77211 -2.16224,0.88707 -4.65714,0.88707 z m -5.93232,-8.37177 q 0,2.38401 1.88504,3.82551 1.88503,1.4415 4.87891,1.4415 2.27313,0 4.15816,-0.77619 1.94048,-0.77619 3.60375,-2.32857 v -5.21157 q -1.71871,-0.99796 -3.5483,-1.4415 -1.8296,-0.49898 -4.10273,-0.49898 -3.10476,0 -4.98979,1.38606 -1.88504,1.38605 -1.88504,3.60374 z"
               style="font-style:normal;font-variant:normal;font-weight:normal;font-stretch:normal;font-size:55.4422px;font-family:'Red Hat Text';-inkscape-font-specification:'Red Hat Text';fill:#ffffff;fill-opacity:1;stroke-width:0.209559"
               id="path887" /><path
               d="m 617.29766,-405.435 v -27.05579 h 4.04728 v 5.48878 q 1.0534,-2.82756 2.99388,-4.37994 1.99592,-1.60782 4.54626,-1.60782 0.72075,0 1.33061,0.11088 0.60987,0.0555 1.21973,0.27721 v 3.65919 q -0.6653,-0.22177 -1.4415,-0.33265 -0.72074,-0.16633 -1.38605,-0.16633 -2.4949,0 -4.37993,1.4415 -1.8296,1.44149 -2.883,4.04728 v 18.51769 z"
               style="font-style:normal;font-variant:normal;font-weight:normal;font-stretch:normal;font-size:55.4422px;font-family:'Red Hat Text';-inkscape-font-specification:'Red Hat Text';fill:#ffffff;fill-opacity:1;stroke-width:0.209559"
               id="path889" /><path
               d="m 654.99832,-405.435 v -3.60374 q -1.55239,1.94048 -3.77007,2.99388 -2.21769,0.99796 -4.87892,0.99796 -2.60578,0 -4.93435,-1.0534 -2.27313,-1.10885 -3.9364,-2.93844 -1.66327,-1.88504 -2.66122,-4.43538 -0.94252,-2.55034 -0.94252,-5.43333 0,-2.93844 0.94252,-5.48878 0.99795,-2.55034 2.71666,-4.37993 1.71871,-1.88504 4.04728,-2.93844 2.32858,-1.10884 4.9898,-1.10884 2.4949,0 4.65715,0.99796 2.16224,0.94251 3.77007,2.77211 v -16.0228 l 4.04728,-0.83163 v 40.4728 z m -17.13164,-13.52789 q 0,4.43537 2.71666,7.42925 2.71667,2.93844 6.76395,2.93844 2.38402,0 4.37994,-0.94252 1.99592,-0.94252 3.27109,-2.66123 v -13.41701 q -1.33062,-1.71871 -3.38198,-2.66122 -1.99592,-0.99796 -4.26905,-0.99796 -4.04728,0 -6.76395,2.93843 -2.71666,2.93844 -2.71666,7.37382 z"
               style="font-style:normal;font-variant:normal;font-weight:normal;font-stretch:normal;font-size:55.4422px;font-family:'Red Hat Text';-inkscape-font-specification:'Red Hat Text';fill:#ffffff;fill-opacity:1;stroke-width:0.209559"
               id="path891" /></g></g></g></g></g></svg>
